# xmcd
#
# Track frame offsets: 
#        150
#        19335
#        33515
#        53236
#        71651
#        88454
#        109336
#        131940
#        155107
#        174417
#        185383
#        200100
#        217437
#        235247
#        250142
#        278783
#
# Disc length: 4440 seconds
#
# Revision: 4
# Processed by: cddbd v1.5.2PL0 Copyright (c) Steve Scherf et al.
# Submitted via: ExactAudioCopyFreeDBPlugin 1.0
#
DISCID=04115610
DTITLE=Team Eimsbush - Team Eimsbush
DYEAR=2003
DGENRE=Hip-Hop
TTITLE0=Samy Deluxe, Twisted, Illo, Tropf - Immer noch da
TTITLE1=D-Flame, B Low, Charnell, Doubleface uva - 2, 4, 6, 8 MC'S
TTITLE2=Elßfeldt, B Low, Tropf - Jana Jones
TTITLE3=D Flame, Mixwell, Tropf - I'm trying
TTITLE4=Phantom Black, Illo, Tropf - It's like that
TTITLE5=Charnell, Twisted, Doubleface, Daytona - Jetzt
TTITLE6=Seanie T, Ben Kenobi, Tropf - S O S RMX
TTITLE7=Phantom Black, Tropf - Deep throat
TTITLE8=Twisted, Stash 73 - Wir übernehmen
TTITLE9=Big Sal, Doubleface, Phantom Black, Daytona - Tristar picturez
TTITLE10=Charnell, Digga Music - Ihr blamiert Rap
TTITLE11=X Ray, Phantom Black, Tony Greer - If I was a book
TTITLE12=Dynamite Deluxe, Tony Rotton aka Blak Twang - So rotton
TTITLE13=Paolo 77, Simon Vegas - Schüttel was Gott dir gab
TTITLE14=Falkadelic, Tobby Digg aka Dj Onlsord - Und der Beat läuft
TTITLE15=Copy Protected
EXTD=YEAR: 2003
EXTT0=
EXTT1=
EXTT2=
EXTT3=
EXTT4=
EXTT5=
EXTT6=
EXTT7=
EXTT8=
EXTT9=
EXTT10=
EXTT11=
EXTT12=
EXTT13=
EXTT14=
EXTT15=
PLAYORDER=
